<mxfile host="app.diagrams.net" modified="2022-09-25T14:29:11.344Z" agent="5.0 (Windows NT 10.0; Win64; x64) AppleWebKit/537.36 (KHTML, like Gecko) Chrome/105.0.0.0 Safari/537.36" etag="uexMVVHgqv3plrmGi0Ts" version="20.3.6" type="github">
  <diagram id="bGMc3I9dXj6o7YJyBAuP" name="Página-1">
    <mxGraphModel dx="751" dy="607" grid="1" gridSize="10" guides="1" tooltips="1" connect="1" arrows="1" fold="1" page="1" pageScale="1" pageWidth="827" pageHeight="1169" math="0" shadow="0">
      <root>
        <mxCell id="0" />
        <mxCell id="1" parent="0" />
        <mxCell id="eat5zsXu1sVtoJwK0PsV-5" style="edgeStyle=orthogonalEdgeStyle;rounded=0;orthogonalLoop=1;jettySize=auto;html=1;exitX=1;exitY=0.5;exitDx=0;exitDy=0;" edge="1" parent="1" source="eat5zsXu1sVtoJwK0PsV-1" target="eat5zsXu1sVtoJwK0PsV-4">
          <mxGeometry relative="1" as="geometry" />
        </mxCell>
        <mxCell id="eat5zsXu1sVtoJwK0PsV-1" value="Pessoa" style="rounded=0;whiteSpace=wrap;html=1;" vertex="1" parent="1">
          <mxGeometry x="194" y="310" width="120" height="40" as="geometry" />
        </mxCell>
        <mxCell id="eat5zsXu1sVtoJwK0PsV-6" style="edgeStyle=orthogonalEdgeStyle;rounded=0;orthogonalLoop=1;jettySize=auto;html=1;exitX=0.5;exitY=1;exitDx=0;exitDy=0;entryX=0.5;entryY=0;entryDx=0;entryDy=0;" edge="1" parent="1" source="eat5zsXu1sVtoJwK0PsV-2" target="eat5zsXu1sVtoJwK0PsV-4">
          <mxGeometry relative="1" as="geometry" />
        </mxCell>
        <mxCell id="eat5zsXu1sVtoJwK0PsV-2" value="Banco" style="rounded=0;whiteSpace=wrap;html=1;" vertex="1" parent="1">
          <mxGeometry x="354" y="240" width="120" height="40" as="geometry" />
        </mxCell>
        <mxCell id="eat5zsXu1sVtoJwK0PsV-7" style="edgeStyle=orthogonalEdgeStyle;rounded=0;orthogonalLoop=1;jettySize=auto;html=1;exitX=0;exitY=0.5;exitDx=0;exitDy=0;entryX=1;entryY=0.5;entryDx=0;entryDy=0;" edge="1" parent="1" source="eat5zsXu1sVtoJwK0PsV-3" target="eat5zsXu1sVtoJwK0PsV-4">
          <mxGeometry relative="1" as="geometry" />
        </mxCell>
        <mxCell id="eat5zsXu1sVtoJwK0PsV-3" value="Company" style="rounded=0;whiteSpace=wrap;html=1;" vertex="1" parent="1">
          <mxGeometry x="514" y="310" width="120" height="40" as="geometry" />
        </mxCell>
        <mxCell id="eat5zsXu1sVtoJwK0PsV-9" style="edgeStyle=orthogonalEdgeStyle;rounded=0;orthogonalLoop=1;jettySize=auto;html=1;exitX=0.5;exitY=1;exitDx=0;exitDy=0;entryX=0.5;entryY=0;entryDx=0;entryDy=0;" edge="1" parent="1" source="eat5zsXu1sVtoJwK0PsV-4" target="eat5zsXu1sVtoJwK0PsV-8">
          <mxGeometry relative="1" as="geometry" />
        </mxCell>
        <mxCell id="eat5zsXu1sVtoJwK0PsV-4" value="u" style="ellipse;whiteSpace=wrap;html=1;aspect=fixed;" vertex="1" parent="1">
          <mxGeometry x="374" y="320" width="80" height="80" as="geometry" />
        </mxCell>
        <mxCell id="eat5zsXu1sVtoJwK0PsV-8" value="Owner" style="rounded=0;whiteSpace=wrap;html=1;" vertex="1" parent="1">
          <mxGeometry x="354" y="450" width="120" height="40" as="geometry" />
        </mxCell>
        <mxCell id="eat5zsXu1sVtoJwK0PsV-15" style="edgeStyle=orthogonalEdgeStyle;rounded=0;orthogonalLoop=1;jettySize=auto;html=1;exitX=0.5;exitY=1;exitDx=0;exitDy=0;entryX=0;entryY=0.5;entryDx=0;entryDy=0;" edge="1" parent="1" source="eat5zsXu1sVtoJwK0PsV-10" target="eat5zsXu1sVtoJwK0PsV-1">
          <mxGeometry relative="1" as="geometry" />
        </mxCell>
        <mxCell id="eat5zsXu1sVtoJwK0PsV-10" value="CPF" style="ellipse;whiteSpace=wrap;html=1;" vertex="1" parent="1">
          <mxGeometry x="90" y="260" width="90" height="40" as="geometry" />
        </mxCell>
        <mxCell id="eat5zsXu1sVtoJwK0PsV-21" style="edgeStyle=orthogonalEdgeStyle;rounded=0;orthogonalLoop=1;jettySize=auto;html=1;exitX=1;exitY=1;exitDx=0;exitDy=0;entryX=0.25;entryY=0;entryDx=0;entryDy=0;" edge="1" parent="1" source="eat5zsXu1sVtoJwK0PsV-11" target="eat5zsXu1sVtoJwK0PsV-1">
          <mxGeometry relative="1" as="geometry" />
        </mxCell>
        <mxCell id="eat5zsXu1sVtoJwK0PsV-11" value="Licença" style="ellipse;whiteSpace=wrap;html=1;" vertex="1" parent="1">
          <mxGeometry x="130" y="210" width="90" height="40" as="geometry" />
        </mxCell>
        <mxCell id="eat5zsXu1sVtoJwK0PsV-20" style="edgeStyle=orthogonalEdgeStyle;rounded=0;orthogonalLoop=1;jettySize=auto;html=1;exitX=1;exitY=1;exitDx=0;exitDy=0;entryX=0.5;entryY=0;entryDx=0;entryDy=0;" edge="1" parent="1" source="eat5zsXu1sVtoJwK0PsV-12" target="eat5zsXu1sVtoJwK0PsV-1">
          <mxGeometry relative="1" as="geometry" />
        </mxCell>
        <mxCell id="eat5zsXu1sVtoJwK0PsV-12" value="Nome" style="ellipse;whiteSpace=wrap;html=1;" vertex="1" parent="1">
          <mxGeometry x="180" y="160" width="90" height="40" as="geometry" />
        </mxCell>
        <mxCell id="eat5zsXu1sVtoJwK0PsV-19" style="edgeStyle=orthogonalEdgeStyle;rounded=0;orthogonalLoop=1;jettySize=auto;html=1;exitX=1;exitY=1;exitDx=0;exitDy=0;entryX=0.75;entryY=0;entryDx=0;entryDy=0;" edge="1" parent="1" source="eat5zsXu1sVtoJwK0PsV-13" target="eat5zsXu1sVtoJwK0PsV-1">
          <mxGeometry relative="1" as="geometry" />
        </mxCell>
        <mxCell id="eat5zsXu1sVtoJwK0PsV-13" value="Endereço" style="ellipse;whiteSpace=wrap;html=1;" vertex="1" parent="1">
          <mxGeometry x="230" y="110" width="97" height="40" as="geometry" />
        </mxCell>
        <mxCell id="eat5zsXu1sVtoJwK0PsV-23" style="edgeStyle=orthogonalEdgeStyle;rounded=0;orthogonalLoop=1;jettySize=auto;html=1;exitX=0.5;exitY=1;exitDx=0;exitDy=0;entryX=0.25;entryY=0;entryDx=0;entryDy=0;" edge="1" parent="1" source="eat5zsXu1sVtoJwK0PsV-22" target="eat5zsXu1sVtoJwK0PsV-2">
          <mxGeometry relative="1" as="geometry" />
        </mxCell>
        <mxCell id="eat5zsXu1sVtoJwK0PsV-22" value="B_nome" style="ellipse;whiteSpace=wrap;html=1;" vertex="1" parent="1">
          <mxGeometry x="354" y="140" width="86" height="50" as="geometry" />
        </mxCell>
        <mxCell id="eat5zsXu1sVtoJwK0PsV-25" style="edgeStyle=orthogonalEdgeStyle;rounded=0;orthogonalLoop=1;jettySize=auto;html=1;exitX=0.5;exitY=1;exitDx=0;exitDy=0;entryX=0.75;entryY=0;entryDx=0;entryDy=0;" edge="1" parent="1" source="eat5zsXu1sVtoJwK0PsV-24" target="eat5zsXu1sVtoJwK0PsV-2">
          <mxGeometry relative="1" as="geometry" />
        </mxCell>
        <mxCell id="eat5zsXu1sVtoJwK0PsV-24" value="B_endereco" style="ellipse;whiteSpace=wrap;html=1;" vertex="1" parent="1">
          <mxGeometry x="414" y="80" width="90" height="60" as="geometry" />
        </mxCell>
        <mxCell id="eat5zsXu1sVtoJwK0PsV-31" style="edgeStyle=orthogonalEdgeStyle;rounded=0;orthogonalLoop=1;jettySize=auto;html=1;exitX=0.5;exitY=1;exitDx=0;exitDy=0;entryX=0.5;entryY=0;entryDx=0;entryDy=0;" edge="1" parent="1" source="eat5zsXu1sVtoJwK0PsV-26" target="eat5zsXu1sVtoJwK0PsV-3">
          <mxGeometry relative="1" as="geometry" />
        </mxCell>
        <mxCell id="eat5zsXu1sVtoJwK0PsV-26" value="C_endereco" style="ellipse;whiteSpace=wrap;html=1;" vertex="1" parent="1">
          <mxGeometry x="560" y="150" width="90" height="60" as="geometry" />
        </mxCell>
        <mxCell id="eat5zsXu1sVtoJwK0PsV-29" style="edgeStyle=orthogonalEdgeStyle;rounded=0;orthogonalLoop=1;jettySize=auto;html=1;exitX=0.5;exitY=1;exitDx=0;exitDy=0;entryX=0.75;entryY=0;entryDx=0;entryDy=0;" edge="1" parent="1" source="eat5zsXu1sVtoJwK0PsV-28" target="eat5zsXu1sVtoJwK0PsV-3">
          <mxGeometry relative="1" as="geometry" />
        </mxCell>
        <mxCell id="eat5zsXu1sVtoJwK0PsV-28" value="C_nome" style="ellipse;whiteSpace=wrap;html=1;" vertex="1" parent="1">
          <mxGeometry x="620" y="210" width="90" height="60" as="geometry" />
        </mxCell>
      </root>
    </mxGraphModel>
  </diagram>
</mxfile>
